<svg width="148" height="65" viewBox="0 0 148 65" fill="none" xmlns="http://www.w3.org/2000/svg">
<path d="M49.1289 4.9375H52.1055L56.4883 17.4648L60.8711 4.9375H63.8477L57.6836 22H55.293L49.1289 4.9375ZM47.5234 4.9375H50.4883L51.0273 17.1484V22H47.5234V4.9375ZM62.4883 4.9375H65.4648V22H61.9492V17.1484L62.4883 4.9375ZM75.1797 19.1406V13.4922C75.1797 13.0859 75.1133 12.7383 74.9805 12.4492C74.8477 12.1523 74.6406 11.9219 74.3594 11.7578C74.0859 11.5938 73.7305 11.5117 73.293 11.5117C72.918 11.5117 72.5938 11.5781 72.3203 11.7109C72.0469 11.8359 71.8359 12.0195 71.6875 12.2617C71.5391 12.4961 71.4648 12.7734 71.4648 13.0938H68.0898C68.0898 12.5547 68.2148 12.043 68.4648 11.5586C68.7148 11.0742 69.0781 10.6484 69.5547 10.2812C70.0312 9.90625 70.5977 9.61328 71.2539 9.40234C71.918 9.19141 72.6602 9.08594 73.4805 9.08594C74.4648 9.08594 75.3398 9.25 76.1055 9.57812C76.8711 9.90625 77.4727 10.3984 77.9102 11.0547C78.3555 11.7109 78.5781 12.5312 78.5781 13.5156V18.9414C78.5781 19.6367 78.6211 20.207 78.707 20.6523C78.793 21.0898 78.918 21.4727 79.082 21.8008V22H75.6719C75.5078 21.6562 75.3828 21.2266 75.2969 20.7109C75.2188 20.1875 75.1797 19.6641 75.1797 19.1406ZM75.625 14.2773L75.6484 16.1875H73.7617C73.3164 16.1875 72.9297 16.2383 72.6016 16.3398C72.2734 16.4414 72.0039 16.5859 71.793 16.7734C71.582 16.9531 71.4258 17.1641 71.3242 17.4062C71.2305 17.6484 71.1836 17.9141 71.1836 18.2031C71.1836 18.4922 71.25 18.7539 71.3828 18.9883C71.5156 19.2148 71.707 19.3945 71.957 19.5273C72.207 19.6523 72.5 19.7148 72.8359 19.7148C73.3438 19.7148 73.7852 19.6133 74.1602 19.4102C74.5352 19.207 74.8242 18.957 75.0273 18.6602C75.2383 18.3633 75.3477 18.082 75.3555 17.8164L76.2461 19.2461C76.1211 19.5664 75.9492 19.8984 75.7305 20.2422C75.5195 20.5859 75.25 20.9102 74.9219 21.2148C74.5938 21.5117 74.1992 21.7578 73.7383 21.9531C73.2773 22.1406 72.7305 22.2344 72.0977 22.2344C71.293 22.2344 70.5625 22.0742 69.9062 21.7539C69.2578 21.4258 68.7422 20.9766 68.3594 20.4062C67.9844 19.8281 67.7969 19.1719 67.7969 18.4375C67.7969 17.7734 67.9219 17.1836 68.1719 16.668C68.4219 16.1523 68.7891 15.7188 69.2734 15.3672C69.7656 15.0078 70.3789 14.7383 71.1133 14.5586C71.8477 14.3711 72.6992 14.2773 73.668 14.2773H75.625ZM84.4844 12.0273V22H81.1094V9.32031H84.2734L84.4844 12.0273ZM83.9922 15.2148H83.0781C83.0781 14.2773 83.1992 13.4336 83.4414 12.6836C83.6836 11.9258 84.0234 11.2812 84.4609 10.75C84.8984 10.2109 85.418 9.80078 86.0195 9.51953C86.6289 9.23047 87.3086 9.08594 88.0586 9.08594C88.6523 9.08594 89.1953 9.17188 89.6875 9.34375C90.1797 9.51562 90.6016 9.78906 90.9531 10.1641C91.3125 10.5391 91.5859 11.0352 91.7734 11.6523C91.9688 12.2695 92.0664 13.0234 92.0664 13.9141V22H88.668V13.9023C88.668 13.3398 88.5898 12.9023 88.4336 12.5898C88.2773 12.2773 88.0469 12.0586 87.7422 11.9336C87.4453 11.8008 87.0781 11.7344 86.6406 11.7344C86.1875 11.7344 85.793 11.8242 85.457 12.0039C85.1289 12.1836 84.8555 12.4336 84.6367 12.7539C84.4258 13.0664 84.2656 13.4336 84.1562 13.8555C84.0469 14.2773 83.9922 14.7305 83.9922 15.2148ZM102.66 9.32031H105.719V21.5781C105.719 22.7344 105.461 23.7148 104.945 24.5195C104.438 25.332 103.727 25.9453 102.812 26.3594C101.898 26.7812 100.836 26.9922 99.625 26.9922C99.0938 26.9922 98.5312 26.9219 97.9375 26.7812C97.3516 26.6406 96.7891 26.4219 96.25 26.125C95.7188 25.8281 95.2734 25.4531 94.9141 25L96.4023 23.0078C96.793 23.4609 97.2461 23.8125 97.7617 24.0625C98.2773 24.3203 98.8477 24.4492 99.4727 24.4492C100.082 24.4492 100.598 24.3359 101.02 24.1094C101.441 23.8906 101.766 23.5664 101.992 23.1367C102.219 22.7148 102.332 22.2031 102.332 21.6016V12.25L102.66 9.32031ZM94.1289 15.8125V15.5664C94.1289 14.5977 94.2461 13.7188 94.4805 12.9297C94.7227 12.1328 95.0625 11.4492 95.5 10.8789C95.9453 10.3086 96.4844 9.86719 97.1172 9.55469C97.75 9.24219 98.4648 9.08594 99.2617 9.08594C100.105 9.08594 100.812 9.24219 101.383 9.55469C101.953 9.86719 102.422 10.3125 102.789 10.8906C103.156 11.4609 103.441 12.1367 103.645 12.918C103.855 13.6914 104.02 14.5391 104.137 15.4609V16C104.02 16.8828 103.844 17.7031 103.609 18.4609C103.375 19.2188 103.066 19.8828 102.684 20.4531C102.301 21.0156 101.824 21.4531 101.254 21.7656C100.691 22.0781 100.02 22.2344 99.2383 22.2344C98.457 22.2344 97.75 22.0742 97.1172 21.7539C96.4922 21.4336 95.957 20.9844 95.5117 20.4062C95.0664 19.8281 94.7227 19.1484 94.4805 18.3672C94.2461 17.5859 94.1289 16.7344 94.1289 15.8125ZM97.5039 15.5664V15.8125C97.5039 16.3359 97.5547 16.8242 97.6562 17.2773C97.7578 17.7305 97.9141 18.1328 98.125 18.4844C98.3438 18.8281 98.6133 19.0977 98.9336 19.293C99.2617 19.4805 99.6484 19.5742 100.094 19.5742C100.711 19.5742 101.215 19.4453 101.605 19.1875C101.996 18.9219 102.289 18.5586 102.484 18.0977C102.68 17.6367 102.793 17.1055 102.824 16.5039V14.9688C102.809 14.4766 102.742 14.0352 102.625 13.6445C102.508 13.2461 102.344 12.9062 102.133 12.625C101.922 12.3438 101.648 12.125 101.312 11.9688C100.977 11.8125 100.578 11.7344 100.117 11.7344C99.6719 11.7344 99.2852 11.8359 98.957 12.0391C98.6367 12.2344 98.3672 12.5039 98.1484 12.8477C97.9375 13.1914 97.7773 13.5977 97.668 14.0664C97.5586 14.5273 97.5039 15.0273 97.5039 15.5664ZM115.199 18.4961C115.199 18.2539 115.129 18.0352 114.988 17.8398C114.848 17.6445 114.586 17.4648 114.203 17.3008C113.828 17.1289 113.285 16.9727 112.574 16.832C111.934 16.6914 111.336 16.5156 110.781 16.3047C110.234 16.0859 109.758 15.8242 109.352 15.5195C108.953 15.2148 108.641 14.8555 108.414 14.4414C108.188 14.0195 108.074 13.5391 108.074 13C108.074 12.4688 108.188 11.9688 108.414 11.5C108.648 11.0312 108.98 10.6172 109.41 10.2578C109.848 9.89062 110.379 9.60547 111.004 9.40234C111.637 9.19141 112.348 9.08594 113.137 9.08594C114.238 9.08594 115.184 9.26172 115.973 9.61328C116.77 9.96484 117.379 10.4492 117.801 11.0664C118.23 11.6758 118.445 12.3711 118.445 13.1523H115.07C115.07 12.8242 115 12.5312 114.859 12.2734C114.727 12.0078 114.516 11.8008 114.227 11.6523C113.945 11.4961 113.578 11.418 113.125 11.418C112.75 11.418 112.426 11.4844 112.152 11.6172C111.879 11.7422 111.668 11.9141 111.52 12.1328C111.379 12.3438 111.309 12.5781 111.309 12.8359C111.309 13.0312 111.348 13.207 111.426 13.3633C111.512 13.5117 111.648 13.6484 111.836 13.7734C112.023 13.8984 112.266 14.0156 112.562 14.125C112.867 14.2266 113.242 14.3203 113.688 14.4062C114.602 14.5938 115.418 14.8398 116.137 15.1445C116.855 15.4414 117.426 15.8477 117.848 16.3633C118.27 16.8711 118.48 17.5391 118.48 18.3672C118.48 18.9297 118.355 19.4453 118.105 19.9141C117.855 20.3828 117.496 20.793 117.027 21.1445C116.559 21.4883 115.996 21.7578 115.34 21.9531C114.691 22.1406 113.961 22.2344 113.148 22.2344C111.969 22.2344 110.969 22.0234 110.148 21.6016C109.336 21.1797 108.719 20.6445 108.297 19.9961C107.883 19.3398 107.676 18.668 107.676 17.9805H110.875C110.891 18.4414 111.008 18.8125 111.227 19.0938C111.453 19.375 111.738 19.5781 112.082 19.7031C112.434 19.8281 112.812 19.8906 113.219 19.8906C113.656 19.8906 114.02 19.832 114.309 19.7148C114.598 19.5898 114.816 19.4258 114.965 19.2227C115.121 19.0117 115.199 18.7695 115.199 18.4961ZM126.508 22.2344C125.523 22.2344 124.641 22.0781 123.859 21.7656C123.078 21.4453 122.414 21.0039 121.867 20.4414C121.328 19.8789 120.914 19.2266 120.625 18.4844C120.336 17.7344 120.191 16.9375 120.191 16.0938V15.625C120.191 14.6641 120.328 13.7852 120.602 12.9883C120.875 12.1914 121.266 11.5 121.773 10.9141C122.289 10.3281 122.914 9.87891 123.648 9.56641C124.383 9.24609 125.211 9.08594 126.133 9.08594C127.031 9.08594 127.828 9.23438 128.523 9.53125C129.219 9.82812 129.801 10.25 130.27 10.7969C130.746 11.3438 131.105 12 131.348 12.7656C131.59 13.5234 131.711 14.3672 131.711 15.2969V16.7031H121.633V14.4531H128.395V14.1953C128.395 13.7266 128.309 13.3086 128.137 12.9414C127.973 12.5664 127.723 12.2695 127.387 12.0508C127.051 11.832 126.621 11.7227 126.098 11.7227C125.652 11.7227 125.27 11.8203 124.949 12.0156C124.629 12.2109 124.367 12.4844 124.164 12.8359C123.969 13.1875 123.82 13.6016 123.719 14.0781C123.625 14.5469 123.578 15.0625 123.578 15.625V16.0938C123.578 16.6016 123.648 17.0703 123.789 17.5C123.938 17.9297 124.145 18.3008 124.41 18.6133C124.684 18.9258 125.012 19.168 125.395 19.3398C125.785 19.5117 126.227 19.5977 126.719 19.5977C127.328 19.5977 127.895 19.4805 128.418 19.2461C128.949 19.0039 129.406 18.6406 129.789 18.1562L131.43 19.9375C131.164 20.3203 130.801 20.6875 130.34 21.0391C129.887 21.3906 129.34 21.6797 128.699 21.9062C128.059 22.125 127.328 22.2344 126.508 22.2344ZM137.195 4V22H133.809V4H137.195ZM54.168 43.918H49.8203V41.1758H54.168C54.8398 41.1758 55.3867 41.0664 55.8086 40.8477C56.2305 40.6211 56.5391 40.3086 56.7344 39.9102C56.9297 39.5117 57.0273 39.0625 57.0273 38.5625C57.0273 38.0547 56.9297 37.582 56.7344 37.1445C56.5391 36.707 56.2305 36.3555 55.8086 36.0898C55.3867 35.8242 54.8398 35.6914 54.168 35.6914H51.0391V50H47.5234V32.9375H54.168C55.5039 32.9375 56.6484 33.1797 57.6016 33.6641C58.5625 34.1406 59.2969 34.8008 59.8047 35.6445C60.3125 36.4883 60.5664 37.4531 60.5664 38.5391C60.5664 39.6406 60.3125 40.5938 59.8047 41.3984C59.2969 42.2031 58.5625 42.8242 57.6016 43.2617C56.6484 43.6992 55.5039 43.918 54.168 43.918ZM68.4531 50.2344C67.4688 50.2344 66.5859 50.0781 65.8047 49.7656C65.0234 49.4453 64.3594 49.0039 63.8125 48.4414C63.2734 47.8789 62.8594 47.2266 62.5703 46.4844C62.2812 45.7344 62.1367 44.9375 62.1367 44.0938V43.625C62.1367 42.6641 62.2734 41.7852 62.5469 40.9883C62.8203 40.1914 63.2109 39.5 63.7188 38.9141C64.2344 38.3281 64.8594 37.8789 65.5938 37.5664C66.3281 37.2461 67.1562 37.0859 68.0781 37.0859C68.9766 37.0859 69.7734 37.2344 70.4688 37.5312C71.1641 37.8281 71.7461 38.25 72.2148 38.7969C72.6914 39.3438 73.0508 40 73.293 40.7656C73.5352 41.5234 73.6562 42.3672 73.6562 43.2969V44.7031H63.5781V42.4531H70.3398V42.1953C70.3398 41.7266 70.2539 41.3086 70.082 40.9414C69.918 40.5664 69.668 40.2695 69.332 40.0508C68.9961 39.832 68.5664 39.7227 68.043 39.7227C67.5977 39.7227 67.2148 39.8203 66.8945 40.0156C66.5742 40.2109 66.3125 40.4844 66.1094 40.8359C65.9141 41.1875 65.7656 41.6016 65.6641 42.0781C65.5703 42.5469 65.5234 43.0625 65.5234 43.625V44.0938C65.5234 44.6016 65.5938 45.0703 65.7344 45.5C65.8828 45.9297 66.0898 46.3008 66.3555 46.6133C66.6289 46.9258 66.957 47.168 67.3398 47.3398C67.7305 47.5117 68.1719 47.5977 68.6641 47.5977C69.2734 47.5977 69.8398 47.4805 70.3633 47.2461C70.8945 47.0039 71.3516 46.6406 71.7344 46.1562L73.375 47.9375C73.1094 48.3203 72.7461 48.6875 72.2852 49.0391C71.832 49.3906 71.2852 49.6797 70.6445 49.9062C70.0039 50.125 69.2734 50.2344 68.4531 50.2344ZM78.9531 40.0859V50H75.5781V37.3203H78.7539L78.9531 40.0859ZM82.7734 37.2383L82.7148 40.3672C82.5508 40.3438 82.3516 40.3242 82.1172 40.3086C81.8906 40.2852 81.6836 40.2734 81.4961 40.2734C81.0195 40.2734 80.6055 40.3359 80.2539 40.4609C79.9102 40.5781 79.6211 40.7539 79.3867 40.9883C79.1602 41.2227 78.9883 41.5078 78.8711 41.8438C78.7617 42.1797 78.6992 42.5625 78.6836 42.9922L78.0039 42.7812C78.0039 41.9609 78.0859 41.207 78.25 40.5195C78.4141 39.8242 78.6523 39.2188 78.9648 38.7031C79.2852 38.1875 79.6758 37.7891 80.1367 37.5078C80.5977 37.2266 81.125 37.0859 81.7188 37.0859C81.9062 37.0859 82.0977 37.1016 82.293 37.1328C82.4883 37.1562 82.6484 37.1914 82.7734 37.2383ZM87.7422 39.7578V54.875H84.3672V37.3203H87.4961L87.7422 39.7578ZM95.7695 43.5195V43.7656C95.7695 44.6875 95.6602 45.543 95.4414 46.332C95.2305 47.1211 94.918 47.8086 94.5039 48.3945C94.0898 48.9727 93.5742 49.4258 92.957 49.7539C92.3477 50.0742 91.6445 50.2344 90.8477 50.2344C90.0742 50.2344 89.4023 50.0781 88.832 49.7656C88.2617 49.4531 87.7812 49.0156 87.3906 48.4531C87.0078 47.8828 86.6992 47.2227 86.4648 46.4727C86.2305 45.7227 86.0508 44.918 85.9258 44.0586V43.4141C86.0508 42.4922 86.2305 41.6484 86.4648 40.8828C86.6992 40.1094 87.0078 39.4414 87.3906 38.8789C87.7812 38.3086 88.2578 37.8672 88.8203 37.5547C89.3906 37.2422 90.0586 37.0859 90.8242 37.0859C91.6289 37.0859 92.3359 37.2383 92.9453 37.543C93.5625 37.8477 94.0781 38.2852 94.4922 38.8555C94.9141 39.4258 95.2305 40.1055 95.4414 40.8945C95.6602 41.6836 95.7695 42.5586 95.7695 43.5195ZM92.3828 43.7656V43.5195C92.3828 42.9805 92.3359 42.4844 92.2422 42.0312C92.1562 41.5703 92.0156 41.168 91.8203 40.8242C91.6328 40.4805 91.3828 40.2148 91.0703 40.0273C90.7656 39.832 90.3945 39.7344 89.957 39.7344C89.4961 39.7344 89.1016 39.8086 88.7734 39.957C88.4531 40.1055 88.1914 40.3203 87.9883 40.6016C87.7852 40.8828 87.6328 41.2188 87.5312 41.6094C87.4297 42 87.3672 42.4414 87.3438 42.9336V44.5625C87.3828 45.1406 87.4922 45.6602 87.6719 46.1211C87.8516 46.5742 88.1289 46.9336 88.5039 47.1992C88.8789 47.4648 89.3711 47.5977 89.9805 47.5977C90.4258 47.5977 90.8008 47.5 91.1055 47.3047C91.4102 47.1016 91.6562 46.8242 91.8438 46.4727C92.0391 46.1211 92.1758 45.7148 92.2539 45.2539C92.3398 44.793 92.3828 44.2969 92.3828 43.7656ZM105.367 46.9648V37.3203H108.742V50H105.566L105.367 46.9648ZM105.742 44.3633L106.738 44.3398C106.738 45.1836 106.641 45.9688 106.445 46.6953C106.25 47.4141 105.957 48.0391 105.566 48.5703C105.176 49.0938 104.684 49.5039 104.09 49.8008C103.496 50.0898 102.797 50.2344 101.992 50.2344C101.375 50.2344 100.805 50.1484 100.281 49.9766C99.7656 49.7969 99.3203 49.5195 98.9453 49.1445C98.5781 48.7617 98.2891 48.2734 98.0781 47.6797C97.875 47.0781 97.7734 46.3555 97.7734 45.5117V37.3203H101.148V45.5352C101.148 45.9102 101.191 46.2266 101.277 46.4844C101.371 46.7422 101.5 46.9531 101.664 47.1172C101.828 47.2812 102.02 47.3984 102.238 47.4688C102.465 47.5391 102.715 47.5742 102.988 47.5742C103.684 47.5742 104.23 47.4336 104.629 47.1523C105.035 46.8711 105.32 46.4883 105.484 46.0039C105.656 45.5117 105.742 44.9648 105.742 44.3633ZM118.176 46.4961C118.176 46.2539 118.105 46.0352 117.965 45.8398C117.824 45.6445 117.562 45.4648 117.18 45.3008C116.805 45.1289 116.262 44.9727 115.551 44.832C114.91 44.6914 114.312 44.5156 113.758 44.3047C113.211 44.0859 112.734 43.8242 112.328 43.5195C111.93 43.2148 111.617 42.8555 111.391 42.4414C111.164 42.0195 111.051 41.5391 111.051 41C111.051 40.4688 111.164 39.9688 111.391 39.5C111.625 39.0312 111.957 38.6172 112.387 38.2578C112.824 37.8906 113.355 37.6055 113.98 37.4023C114.613 37.1914 115.324 37.0859 116.113 37.0859C117.215 37.0859 118.16 37.2617 118.949 37.6133C119.746 37.9648 120.355 38.4492 120.777 39.0664C121.207 39.6758 121.422 40.3711 121.422 41.1523H118.047C118.047 40.8242 117.977 40.5312 117.836 40.2734C117.703 40.0078 117.492 39.8008 117.203 39.6523C116.922 39.4961 116.555 39.418 116.102 39.418C115.727 39.418 115.402 39.4844 115.129 39.6172C114.855 39.7422 114.645 39.9141 114.496 40.1328C114.355 40.3438 114.285 40.5781 114.285 40.8359C114.285 41.0312 114.324 41.207 114.402 41.3633C114.488 41.5117 114.625 41.6484 114.812 41.7734C115 41.8984 115.242 42.0156 115.539 42.125C115.844 42.2266 116.219 42.3203 116.664 42.4062C117.578 42.5938 118.395 42.8398 119.113 43.1445C119.832 43.4414 120.402 43.8477 120.824 44.3633C121.246 44.8711 121.457 45.5391 121.457 46.3672C121.457 46.9297 121.332 47.4453 121.082 47.9141C120.832 48.3828 120.473 48.793 120.004 49.1445C119.535 49.4883 118.973 49.7578 118.316 49.9531C117.668 50.1406 116.938 50.2344 116.125 50.2344C114.945 50.2344 113.945 50.0234 113.125 49.6016C112.312 49.1797 111.695 48.6445 111.273 47.9961C110.859 47.3398 110.652 46.668 110.652 45.9805H113.852C113.867 46.4414 113.984 46.8125 114.203 47.0938C114.43 47.375 114.715 47.5781 115.059 47.7031C115.41 47.8281 115.789 47.8906 116.195 47.8906C116.633 47.8906 116.996 47.832 117.285 47.7148C117.574 47.5898 117.793 47.4258 117.941 47.2227C118.098 47.0117 118.176 46.7695 118.176 46.4961Z" fill="#119CD8"/>
<path d="M1 5V55.2177" stroke="#119CD8" stroke-width="2"/>
<path d="M15.2858 5V55.2177" stroke="#119CD8" stroke-width="2"/>
<path d="M21 6.09076L33.3389 54.011" stroke="#119CD8" stroke-width="2"/>
</svg>
