<svg width="894" height="604" viewBox="0 0 894 604" fill="none" xmlns="http://www.w3.org/2000/svg">
<g clip-path="url(#clip0_2_7)">
<rect width="894" height="604" rx="10" fill="white" style="mix-blend-mode:hard-light"/>
<rect width="447" height="604" fill="#118AE1"/>
<path d="M508.227 39.5455V57H506.114V39.5455H508.227ZM514.204 49.125V57H512.192V43.9091H514.136V45.9545H514.306C514.613 45.2898 515.079 44.7557 515.704 44.3523C516.329 43.9432 517.136 43.7386 518.124 43.7386C519.011 43.7386 519.786 43.9205 520.451 44.2841C521.116 44.642 521.633 45.1875 522.002 45.9205C522.371 46.6477 522.556 47.5682 522.556 48.6818V57H520.545V48.8182C520.545 47.7898 520.278 46.9886 519.744 46.4148C519.21 45.8352 518.477 45.5455 517.545 45.5455C516.903 45.5455 516.329 45.6847 515.823 45.9631C515.323 46.2415 514.928 46.6477 514.638 47.1818C514.349 47.7159 514.204 48.3636 514.204 49.125ZM532.061 43.9091V45.6136H525.004V43.9091H532.061ZM527.118 57V42.1023C527.118 41.3523 527.294 40.7273 527.646 40.2273C527.999 39.7273 528.456 39.3523 529.018 39.1023C529.581 38.8523 530.175 38.7273 530.8 38.7273C531.294 38.7273 531.697 38.767 532.01 38.8466C532.322 38.9261 532.555 39 532.709 39.0682L532.129 40.8068C532.027 40.7727 531.885 40.7301 531.703 40.679C531.527 40.6278 531.294 40.6023 531.004 40.6023C530.339 40.6023 529.859 40.7699 529.564 41.1051C529.274 41.4403 529.129 41.9318 529.129 42.5795V57H527.118ZM539.659 57.2727C538.477 57.2727 537.44 56.9915 536.548 56.429C535.662 55.8665 534.969 55.0795 534.469 54.0682C533.974 53.0568 533.727 51.875 533.727 50.5227C533.727 49.1591 533.974 47.9687 534.469 46.9517C534.969 45.9347 535.662 45.1449 536.548 44.5824C537.44 44.0199 538.477 43.7386 539.659 43.7386C540.841 43.7386 541.875 44.0199 542.761 44.5824C543.653 45.1449 544.347 45.9347 544.841 46.9517C545.341 47.9687 545.591 49.1591 545.591 50.5227C545.591 51.875 545.341 53.0568 544.841 54.0682C544.347 55.0795 543.653 55.8665 542.761 56.429C541.875 56.9915 540.841 57.2727 539.659 57.2727ZM539.659 55.4659C540.557 55.4659 541.295 55.2358 541.875 54.7756C542.455 54.3153 542.884 53.7102 543.162 52.9602C543.44 52.2102 543.58 51.3977 543.58 50.5227C543.58 49.6477 543.44 48.8324 543.162 48.0767C542.884 47.321 542.455 46.7102 541.875 46.2443C541.295 45.7784 540.557 45.5455 539.659 45.5455C538.761 45.5455 538.023 45.7784 537.443 46.2443C536.864 46.7102 536.435 47.321 536.156 48.0767C535.878 48.8324 535.739 49.6477 535.739 50.5227C535.739 51.3977 535.878 52.2102 536.156 52.9602C536.435 53.7102 536.864 54.3153 537.443 54.7756C538.023 55.2358 538.761 55.4659 539.659 55.4659ZM548.661 57V43.9091H550.604V45.8864H550.741C550.979 45.2386 551.411 44.7131 552.036 44.3097C552.661 43.9062 553.366 43.7045 554.15 43.7045C554.298 43.7045 554.482 43.7074 554.704 43.7131C554.925 43.7187 555.093 43.7273 555.207 43.7386V45.7841C555.138 45.767 554.982 45.7415 554.738 45.7074C554.499 45.6676 554.246 45.6477 553.979 45.6477C553.343 45.6477 552.775 45.7812 552.275 46.0483C551.781 46.3097 551.388 46.6733 551.099 47.1392C550.815 47.5994 550.673 48.125 550.673 48.7159V57H548.661ZM557.591 57V43.9091H559.534V45.9545H559.705C559.977 45.2557 560.418 44.7131 561.026 44.3267C561.634 43.9347 562.364 43.7386 563.216 43.7386C564.08 43.7386 564.798 43.9347 565.372 44.3267C565.952 44.7131 566.403 45.2557 566.727 45.9545H566.864C567.199 45.2784 567.702 44.7415 568.372 44.3438C569.043 43.9403 569.847 43.7386 570.784 43.7386C571.955 43.7386 572.912 44.1051 573.656 44.8381C574.401 45.5653 574.773 46.6989 574.773 48.2386V57H572.761V48.2386C572.761 47.2727 572.497 46.5824 571.969 46.1676C571.44 45.7528 570.818 45.5455 570.102 45.5455C569.182 45.5455 568.469 45.8239 567.963 46.3807C567.457 46.9318 567.205 47.6307 567.205 48.4773V57H565.159V48.0341C565.159 47.2898 564.918 46.6903 564.435 46.2358C563.952 45.7756 563.33 45.5455 562.568 45.5455C562.045 45.5455 561.557 45.6847 561.102 45.9631C560.653 46.2415 560.29 46.6278 560.011 47.1222C559.739 47.6108 559.602 48.1761 559.602 48.8182V57H557.591ZM582.303 57.3068C581.473 57.3068 580.72 57.1506 580.044 56.8381C579.368 56.5199 578.831 56.0625 578.433 55.4659C578.036 54.8636 577.837 54.1364 577.837 53.2841C577.837 52.5341 577.984 51.9261 578.28 51.4602C578.575 50.9886 578.97 50.6193 579.464 50.3523C579.959 50.0852 580.504 49.8864 581.101 49.7557C581.703 49.6193 582.308 49.5114 582.916 49.4318C583.712 49.3295 584.357 49.2528 584.851 49.2017C585.351 49.1449 585.714 49.0511 585.942 48.9205C586.175 48.7898 586.291 48.5625 586.291 48.2386V48.1705C586.291 47.3295 586.061 46.6761 585.601 46.2102C585.146 45.7443 584.456 45.5114 583.53 45.5114C582.57 45.5114 581.817 45.7216 581.271 46.142C580.726 46.5625 580.342 47.0114 580.121 47.4886L578.212 46.8068C578.553 46.0114 579.007 45.392 579.575 44.9489C580.149 44.5 580.774 44.1875 581.45 44.0114C582.132 43.8295 582.803 43.7386 583.462 43.7386C583.882 43.7386 584.365 43.7898 584.911 43.892C585.462 43.9886 585.993 44.1903 586.504 44.4972C587.021 44.804 587.45 45.267 587.791 45.8864C588.132 46.5057 588.303 47.3352 588.303 48.375V57H586.291V55.2273H586.189C586.053 55.5114 585.825 55.8153 585.507 56.1392C585.189 56.4631 584.766 56.7386 584.237 56.9659C583.709 57.1932 583.064 57.3068 582.303 57.3068ZM582.609 55.5C583.405 55.5 584.075 55.3438 584.621 55.0312C585.172 54.7188 585.587 54.3153 585.865 53.821C586.149 53.3267 586.291 52.8068 586.291 52.2614V50.4205C586.206 50.5227 586.018 50.6165 585.729 50.7017C585.445 50.7812 585.115 50.8523 584.74 50.9148C584.371 50.9716 584.01 51.0227 583.658 51.0682C583.311 51.108 583.03 51.142 582.814 51.1705C582.291 51.2386 581.803 51.3494 581.348 51.5028C580.899 51.6506 580.536 51.875 580.257 52.1761C579.984 52.4716 579.848 52.875 579.848 53.3864C579.848 54.0852 580.107 54.6136 580.624 54.9716C581.146 55.3239 581.808 55.5 582.609 55.5ZM597.667 43.9091V45.6136H590.883V43.9091H597.667ZM592.86 40.7727H594.871V53.25C594.871 53.8182 594.954 54.2443 595.119 54.5284C595.289 54.8068 595.505 54.9943 595.766 55.0909C596.033 55.1818 596.315 55.2273 596.61 55.2273C596.832 55.2273 597.013 55.2159 597.156 55.1932C597.298 55.1648 597.411 55.142 597.496 55.125L597.906 56.9318C597.769 56.983 597.579 57.0341 597.335 57.0852C597.09 57.142 596.781 57.1705 596.406 57.1705C595.837 57.1705 595.281 57.0483 594.735 56.804C594.195 56.5597 593.746 56.1875 593.388 55.6875C593.036 55.1875 592.86 54.5568 592.86 53.7955V40.7727ZM600.692 57V43.9091H602.704V57H600.692ZM601.715 41.7273C601.323 41.7273 600.985 41.5938 600.701 41.3267C600.423 41.0597 600.283 40.7386 600.283 40.3636C600.283 39.9886 600.423 39.6676 600.701 39.4006C600.985 39.1335 601.323 39 601.715 39C602.107 39 602.442 39.1335 602.721 39.4006C603.005 39.6676 603.147 39.9886 603.147 40.3636C603.147 40.7386 603.005 41.0597 602.721 41.3267C602.442 41.5938 602.107 41.7273 601.715 41.7273ZM611.706 57.2727C610.524 57.2727 609.487 56.9915 608.595 56.429C607.709 55.8665 607.016 55.0795 606.516 54.0682C606.021 53.0568 605.774 51.875 605.774 50.5227C605.774 49.1591 606.021 47.9687 606.516 46.9517C607.016 45.9347 607.709 45.1449 608.595 44.5824C609.487 44.0199 610.524 43.7386 611.706 43.7386C612.888 43.7386 613.922 44.0199 614.808 44.5824C615.7 45.1449 616.393 45.9347 616.888 46.9517C617.388 47.9687 617.638 49.1591 617.638 50.5227C617.638 51.875 617.388 53.0568 616.888 54.0682C616.393 55.0795 615.7 55.8665 614.808 56.429C613.922 56.9915 612.888 57.2727 611.706 57.2727ZM611.706 55.4659C612.604 55.4659 613.342 55.2358 613.922 54.7756C614.501 54.3153 614.93 53.7102 615.209 52.9602C615.487 52.2102 615.626 51.3977 615.626 50.5227C615.626 49.6477 615.487 48.8324 615.209 48.0767C614.93 47.321 614.501 46.7102 613.922 46.2443C613.342 45.7784 612.604 45.5455 611.706 45.5455C610.808 45.5455 610.07 45.7784 609.49 46.2443C608.911 46.7102 608.482 47.321 608.203 48.0767C607.925 48.8324 607.786 49.6477 607.786 50.5227C607.786 51.3977 607.925 52.2102 608.203 52.9602C608.482 53.7102 608.911 54.3153 609.49 54.7756C610.07 55.2358 610.808 55.4659 611.706 55.4659ZM622.719 49.125V57H620.708V43.9091H622.651V45.9545H622.822C623.129 45.2898 623.594 44.7557 624.219 44.3523C624.844 43.9432 625.651 43.7386 626.64 43.7386C627.526 43.7386 628.302 43.9205 628.967 44.2841C629.631 44.642 630.148 45.1875 630.518 45.9205C630.887 46.6477 631.072 47.5682 631.072 48.6818V57H629.06V48.8182C629.06 47.7898 628.793 46.9886 628.259 46.4148C627.725 45.8352 626.992 45.5455 626.06 45.5455C625.418 45.5455 624.844 45.6847 624.339 45.9631C623.839 46.2415 623.444 46.6477 623.154 47.1818C622.864 47.7159 622.719 48.3636 622.719 49.125Z" fill="black"/>
<path d="M520.159 315H518.045C517.92 314.392 517.702 313.858 517.389 313.398C517.082 312.938 516.707 312.551 516.264 312.239C515.827 311.92 515.341 311.682 514.807 311.523C514.273 311.364 513.716 311.284 513.136 311.284C512.08 311.284 511.122 311.551 510.264 312.085C509.412 312.619 508.733 313.406 508.227 314.446C507.727 315.486 507.477 316.761 507.477 318.273C507.477 319.784 507.727 321.06 508.227 322.099C508.733 323.139 509.412 323.926 510.264 324.46C511.122 324.994 512.08 325.261 513.136 325.261C513.716 325.261 514.273 325.182 514.807 325.023C515.341 324.864 515.827 324.628 516.264 324.315C516.707 323.997 517.082 323.608 517.389 323.148C517.702 322.682 517.92 322.148 518.045 321.545H520.159C520 322.437 519.71 323.236 519.29 323.94C518.869 324.645 518.347 325.244 517.722 325.739C517.097 326.227 516.395 326.599 515.616 326.855C514.844 327.111 514.017 327.239 513.136 327.239C511.648 327.239 510.324 326.875 509.165 326.148C508.006 325.42 507.094 324.386 506.429 323.045C505.764 321.705 505.432 320.114 505.432 318.273C505.432 316.432 505.764 314.841 506.429 313.5C507.094 312.159 508.006 311.125 509.165 310.398C510.324 309.67 511.648 309.307 513.136 309.307C514.017 309.307 514.844 309.435 515.616 309.69C516.395 309.946 517.097 310.321 517.722 310.815C518.347 311.304 518.869 311.901 519.29 312.605C519.71 313.304 520 314.102 520.159 315ZM527.154 327.307C526.325 327.307 525.572 327.151 524.896 326.838C524.219 326.52 523.683 326.062 523.285 325.466C522.887 324.864 522.688 324.136 522.688 323.284C522.688 322.534 522.836 321.926 523.131 321.46C523.427 320.989 523.822 320.619 524.316 320.352C524.81 320.085 525.356 319.886 525.952 319.756C526.555 319.619 527.16 319.511 527.768 319.432C528.563 319.33 529.208 319.253 529.702 319.202C530.202 319.145 530.566 319.051 530.793 318.92C531.026 318.79 531.143 318.562 531.143 318.239V318.17C531.143 317.33 530.913 316.676 530.452 316.21C529.998 315.744 529.308 315.511 528.381 315.511C527.421 315.511 526.668 315.722 526.123 316.142C525.577 316.562 525.194 317.011 524.972 317.489L523.063 316.807C523.404 316.011 523.859 315.392 524.427 314.949C525.001 314.5 525.626 314.187 526.302 314.011C526.984 313.83 527.654 313.739 528.313 313.739C528.734 313.739 529.217 313.79 529.762 313.892C530.313 313.989 530.844 314.19 531.356 314.497C531.873 314.804 532.302 315.267 532.643 315.886C532.984 316.506 533.154 317.335 533.154 318.375V327H531.143V325.227H531.04C530.904 325.511 530.677 325.815 530.359 326.139C530.04 326.463 529.617 326.739 529.089 326.966C528.56 327.193 527.915 327.307 527.154 327.307ZM527.461 325.5C528.256 325.5 528.927 325.344 529.472 325.031C530.023 324.719 530.438 324.315 530.717 323.821C531.001 323.327 531.143 322.807 531.143 322.261V320.42C531.058 320.523 530.87 320.616 530.58 320.702C530.296 320.781 529.967 320.852 529.592 320.915C529.222 320.972 528.862 321.023 528.509 321.068C528.163 321.108 527.881 321.142 527.665 321.17C527.143 321.239 526.654 321.349 526.2 321.503C525.751 321.651 525.387 321.875 525.109 322.176C524.836 322.472 524.7 322.875 524.7 323.386C524.7 324.085 524.958 324.614 525.475 324.972C525.998 325.324 526.66 325.5 527.461 325.5ZM536.825 327V313.909H538.768V315.886H538.905C539.143 315.239 539.575 314.713 540.2 314.31C540.825 313.906 541.53 313.705 542.314 313.705C542.462 313.705 542.646 313.707 542.868 313.713C543.089 313.719 543.257 313.727 543.371 313.739V315.784C543.303 315.767 543.146 315.741 542.902 315.707C542.663 315.668 542.411 315.648 542.143 315.648C541.507 315.648 540.939 315.781 540.439 316.048C539.945 316.31 539.553 316.673 539.263 317.139C538.979 317.599 538.837 318.125 538.837 318.716V327H536.825ZM550.3 327.273C549.209 327.273 548.246 326.997 547.411 326.446C546.575 325.889 545.922 325.105 545.45 324.094C544.979 323.077 544.743 321.875 544.743 320.489C544.743 319.114 544.979 317.92 545.45 316.909C545.922 315.898 546.578 315.116 547.419 314.565C548.26 314.014 549.232 313.739 550.334 313.739C551.186 313.739 551.859 313.881 552.354 314.165C552.854 314.443 553.234 314.761 553.496 315.119C553.763 315.472 553.97 315.761 554.118 315.989H554.288V309.545H556.3V327H554.357V324.989H554.118C553.97 325.227 553.76 325.528 553.487 325.892C553.214 326.25 552.825 326.571 552.32 326.855C551.814 327.134 551.141 327.273 550.3 327.273ZM550.572 325.466C551.379 325.466 552.061 325.256 552.618 324.835C553.175 324.409 553.598 323.821 553.888 323.071C554.178 322.315 554.322 321.443 554.322 320.455C554.322 319.477 554.18 318.622 553.896 317.889C553.612 317.151 553.192 316.577 552.635 316.168C552.078 315.753 551.391 315.545 550.572 315.545C549.72 315.545 549.01 315.764 548.442 316.202C547.879 316.634 547.456 317.222 547.172 317.966C546.893 318.705 546.754 319.534 546.754 320.455C546.754 321.386 546.896 322.233 547.18 322.994C547.47 323.75 547.896 324.352 548.459 324.801C549.027 325.244 549.732 325.466 550.572 325.466ZM567.286 309.545H569.808L575.74 324.034H575.945L581.876 309.545H584.399V327H582.422V313.739H582.251L576.797 327H574.888L569.433 313.739H569.263V327H567.286V309.545ZM593.853 327.273C592.592 327.273 591.504 326.994 590.589 326.438C589.68 325.875 588.978 325.091 588.484 324.085C587.995 323.074 587.751 321.898 587.751 320.557C587.751 319.216 587.995 318.034 588.484 317.011C588.978 315.983 589.665 315.182 590.546 314.608C591.433 314.028 592.467 313.739 593.648 313.739C594.33 313.739 595.004 313.852 595.668 314.08C596.333 314.307 596.938 314.676 597.484 315.188C598.029 315.693 598.464 316.364 598.788 317.199C599.112 318.034 599.273 319.062 599.273 320.284V321.136H589.183V319.398H597.228C597.228 318.659 597.08 318 596.785 317.42C596.495 316.841 596.08 316.384 595.54 316.048C595.006 315.713 594.376 315.545 593.648 315.545C592.847 315.545 592.154 315.744 591.569 316.142C590.989 316.534 590.543 317.045 590.231 317.676C589.918 318.307 589.762 318.983 589.762 319.705V320.864C589.762 321.852 589.933 322.69 590.273 323.378C590.62 324.06 591.1 324.58 591.714 324.938C592.327 325.29 593.04 325.466 593.853 325.466C594.381 325.466 594.859 325.392 595.285 325.244C595.717 325.091 596.089 324.864 596.401 324.562C596.714 324.256 596.955 323.875 597.126 323.42L599.069 323.966C598.864 324.625 598.521 325.205 598.038 325.705C597.555 326.199 596.958 326.585 596.248 326.864C595.538 327.136 594.739 327.273 593.853 327.273ZM602.333 327V313.909H604.276V315.955H604.447C604.719 315.256 605.16 314.713 605.768 314.327C606.376 313.935 607.106 313.739 607.958 313.739C608.822 313.739 609.54 313.935 610.114 314.327C610.694 314.713 611.146 315.256 611.469 315.955H611.606C611.941 315.278 612.444 314.741 613.114 314.344C613.785 313.94 614.589 313.739 615.526 313.739C616.697 313.739 617.654 314.105 618.398 314.838C619.143 315.565 619.515 316.699 619.515 318.239V327H617.504V318.239C617.504 317.273 617.239 316.582 616.711 316.168C616.183 315.753 615.56 315.545 614.844 315.545C613.924 315.545 613.211 315.824 612.705 316.381C612.2 316.932 611.947 317.631 611.947 318.477V327H609.901V318.034C609.901 317.29 609.66 316.69 609.177 316.236C608.694 315.776 608.072 315.545 607.31 315.545C606.788 315.545 606.299 315.685 605.844 315.963C605.396 316.241 605.032 316.628 604.754 317.122C604.481 317.611 604.344 318.176 604.344 318.818V327H602.333ZM623.465 327V309.545H625.477V315.989H625.647C625.795 315.761 625.999 315.472 626.261 315.119C626.528 314.761 626.908 314.443 627.403 314.165C627.903 313.881 628.579 313.739 629.431 313.739C630.533 313.739 631.505 314.014 632.346 314.565C633.187 315.116 633.843 315.898 634.315 316.909C634.786 317.92 635.022 319.114 635.022 320.489C635.022 321.875 634.786 323.077 634.315 324.094C633.843 325.105 633.19 325.889 632.354 326.446C631.519 326.997 630.556 327.273 629.465 327.273C628.624 327.273 627.951 327.134 627.445 326.855C626.94 326.571 626.55 326.25 626.278 325.892C626.005 325.528 625.795 325.227 625.647 324.989H625.408V327H623.465ZM625.442 320.455C625.442 321.443 625.587 322.315 625.877 323.071C626.167 323.821 626.59 324.409 627.147 324.835C627.704 325.256 628.386 325.466 629.192 325.466C630.033 325.466 630.735 325.244 631.298 324.801C631.866 324.352 632.292 323.75 632.576 322.994C632.866 322.233 633.011 321.386 633.011 320.455C633.011 319.534 632.869 318.705 632.585 317.966C632.306 317.222 631.883 316.634 631.315 316.202C630.752 315.764 630.045 315.545 629.192 315.545C628.374 315.545 627.687 315.753 627.13 316.168C626.573 316.577 626.153 317.151 625.869 317.889C625.585 318.622 625.442 319.477 625.442 320.455ZM643.587 327.273C642.326 327.273 641.238 326.994 640.323 326.438C639.414 325.875 638.712 325.091 638.218 324.085C637.729 323.074 637.485 321.898 637.485 320.557C637.485 319.216 637.729 318.034 638.218 317.011C638.712 315.983 639.4 315.182 640.281 314.608C641.167 314.028 642.201 313.739 643.383 313.739C644.065 313.739 644.738 313.852 645.403 314.08C646.067 314.307 646.673 314.676 647.218 315.188C647.763 315.693 648.198 316.364 648.522 317.199C648.846 318.034 649.008 319.062 649.008 320.284V321.136H638.917V319.398H646.962C646.962 318.659 646.815 318 646.519 317.42C646.229 316.841 645.815 316.384 645.275 316.048C644.741 315.713 644.11 315.545 643.383 315.545C642.582 315.545 641.888 315.744 641.303 316.142C640.724 316.534 640.278 317.045 639.965 317.676C639.653 318.307 639.496 318.983 639.496 319.705V320.864C639.496 321.852 639.667 322.69 640.008 323.378C640.354 324.06 640.835 324.58 641.448 324.938C642.062 325.29 642.775 325.466 643.587 325.466C644.116 325.466 644.593 325.392 645.019 325.244C645.451 325.091 645.823 324.864 646.136 324.562C646.448 324.256 646.69 323.875 646.86 323.42L648.803 323.966C648.599 324.625 648.255 325.205 647.772 325.705C647.289 326.199 646.692 326.585 645.982 326.864C645.272 327.136 644.474 327.273 643.587 327.273ZM652.067 327V313.909H654.011V315.886H654.147C654.386 315.239 654.817 314.713 655.442 314.31C656.067 313.906 656.772 313.705 657.556 313.705C657.704 313.705 657.888 313.707 658.11 313.713C658.332 313.719 658.499 313.727 658.613 313.739V315.784C658.545 315.767 658.388 315.741 658.144 315.707C657.906 315.668 657.653 315.648 657.386 315.648C656.749 315.648 656.181 315.781 655.681 316.048C655.187 316.31 654.795 316.673 654.505 317.139C654.221 317.599 654.079 318.125 654.079 318.716V327H652.067Z" fill="black"/>
<path d="M506.114 130V112.545H516.648V114.42H508.227V120.318H516.102V122.193H508.227V128.125H516.784V130H506.114ZM520.185 130V116.909H522.128V118.955H522.298C522.571 118.256 523.011 117.713 523.619 117.327C524.227 116.935 524.957 116.739 525.81 116.739C526.673 116.739 527.392 116.935 527.966 117.327C528.545 117.713 528.997 118.256 529.321 118.955H529.457C529.793 118.278 530.295 117.741 530.966 117.344C531.636 116.94 532.44 116.739 533.378 116.739C534.548 116.739 535.506 117.105 536.25 117.838C536.994 118.565 537.366 119.699 537.366 121.239V130H535.355V121.239C535.355 120.273 535.091 119.582 534.562 119.168C534.034 118.753 533.412 118.545 532.696 118.545C531.776 118.545 531.063 118.824 530.557 119.381C530.051 119.932 529.798 120.631 529.798 121.477V130H527.753V121.034C527.753 120.29 527.511 119.69 527.028 119.236C526.545 118.776 525.923 118.545 525.162 118.545C524.639 118.545 524.151 118.685 523.696 118.963C523.247 119.241 522.884 119.628 522.605 120.122C522.332 120.611 522.196 121.176 522.196 121.818V130H520.185ZM544.896 130.307C544.067 130.307 543.314 130.151 542.638 129.838C541.962 129.52 541.425 129.062 541.027 128.466C540.629 127.864 540.43 127.136 540.43 126.284C540.43 125.534 540.578 124.926 540.874 124.46C541.169 123.989 541.564 123.619 542.058 123.352C542.553 123.085 543.098 122.886 543.695 122.756C544.297 122.619 544.902 122.511 545.51 122.432C546.305 122.33 546.95 122.253 547.445 122.202C547.945 122.145 548.308 122.051 548.536 121.92C548.768 121.79 548.885 121.562 548.885 121.239V121.17C548.885 120.33 548.655 119.676 548.195 119.21C547.74 118.744 547.05 118.511 546.124 118.511C545.163 118.511 544.411 118.722 543.865 119.142C543.32 119.562 542.936 120.011 542.714 120.489L540.805 119.807C541.146 119.011 541.601 118.392 542.169 117.949C542.743 117.5 543.368 117.187 544.044 117.011C544.726 116.83 545.396 116.739 546.055 116.739C546.476 116.739 546.959 116.79 547.504 116.892C548.055 116.989 548.587 117.19 549.098 117.497C549.615 117.804 550.044 118.267 550.385 118.886C550.726 119.506 550.896 120.335 550.896 121.375V130H548.885V128.227H548.783C548.646 128.511 548.419 128.815 548.101 129.139C547.783 129.463 547.359 129.739 546.831 129.966C546.303 130.193 545.658 130.307 544.896 130.307ZM545.203 128.5C545.999 128.5 546.669 128.344 547.214 128.031C547.766 127.719 548.18 127.315 548.459 126.821C548.743 126.327 548.885 125.807 548.885 125.261V123.42C548.8 123.523 548.612 123.616 548.322 123.702C548.038 123.781 547.709 123.852 547.334 123.915C546.964 123.972 546.604 124.023 546.251 124.068C545.905 124.108 545.624 124.142 545.408 124.17C544.885 124.239 544.396 124.349 543.942 124.503C543.493 124.651 543.129 124.875 542.851 125.176C542.578 125.472 542.442 125.875 542.442 126.386C542.442 127.085 542.7 127.614 543.217 127.972C543.74 128.324 544.402 128.5 545.203 128.5ZM554.567 130V116.909H556.579V130H554.567ZM555.59 114.727C555.198 114.727 554.86 114.594 554.576 114.327C554.298 114.06 554.158 113.739 554.158 113.364C554.158 112.989 554.298 112.668 554.576 112.401C554.86 112.134 555.198 112 555.59 112C555.982 112 556.317 112.134 556.596 112.401C556.88 112.668 557.022 112.989 557.022 113.364C557.022 113.739 556.88 114.06 556.596 114.327C556.317 114.594 555.982 114.727 555.59 114.727ZM562.274 112.545V130H560.263V112.545H562.274Z" fill="black"/>
<path d="M508.227 382.545V400H506.114V382.545H508.227ZM517.852 400H512.465V382.545H518.09C519.783 382.545 521.232 382.895 522.437 383.594C523.641 384.287 524.565 385.284 525.207 386.585C525.849 387.881 526.17 389.432 526.17 391.239C526.17 393.057 525.846 394.622 525.198 395.935C524.55 397.241 523.607 398.247 522.369 398.952C521.13 399.651 519.624 400 517.852 400ZM514.579 398.125H517.715C519.158 398.125 520.354 397.847 521.303 397.29C522.252 396.733 522.96 395.94 523.425 394.912C523.891 393.884 524.124 392.659 524.124 391.239C524.124 389.83 523.894 388.616 523.434 387.599C522.974 386.577 522.286 385.793 521.371 385.247C520.457 384.696 519.317 384.42 517.954 384.42H514.579V398.125ZM550.511 388H548.397C548.272 387.392 548.053 386.858 547.741 386.398C547.434 385.938 547.059 385.551 546.616 385.239C546.178 384.92 545.692 384.682 545.158 384.523C544.624 384.364 544.067 384.284 543.488 384.284C542.431 384.284 541.474 384.551 540.616 385.085C539.763 385.619 539.085 386.406 538.579 387.446C538.079 388.486 537.829 389.761 537.829 391.273C537.829 392.784 538.079 394.06 538.579 395.099C539.085 396.139 539.763 396.926 540.616 397.46C541.474 397.994 542.431 398.261 543.488 398.261C544.067 398.261 544.624 398.182 545.158 398.023C545.692 397.864 546.178 397.628 546.616 397.315C547.059 396.997 547.434 396.608 547.741 396.148C548.053 395.682 548.272 395.148 548.397 394.545H550.511C550.352 395.437 550.062 396.236 549.641 396.94C549.221 397.645 548.698 398.244 548.073 398.739C547.448 399.227 546.746 399.599 545.968 399.855C545.195 400.111 544.369 400.239 543.488 400.239C541.999 400.239 540.675 399.875 539.516 399.148C538.357 398.42 537.445 397.386 536.781 396.045C536.116 394.705 535.783 393.114 535.783 391.273C535.783 389.432 536.116 387.841 536.781 386.5C537.445 385.159 538.357 384.125 539.516 383.398C540.675 382.67 541.999 382.307 543.488 382.307C544.369 382.307 545.195 382.435 545.968 382.69C546.746 382.946 547.448 383.321 548.073 383.815C548.698 384.304 549.221 384.901 549.641 385.605C550.062 386.304 550.352 387.102 550.511 388ZM557.506 400.307C556.676 400.307 555.923 400.151 555.247 399.838C554.571 399.52 554.034 399.062 553.636 398.466C553.239 397.864 553.04 397.136 553.04 396.284C553.04 395.534 553.188 394.926 553.483 394.46C553.778 393.989 554.173 393.619 554.668 393.352C555.162 393.085 555.707 392.886 556.304 392.756C556.906 392.619 557.511 392.511 558.119 392.432C558.915 392.33 559.56 392.253 560.054 392.202C560.554 392.145 560.918 392.051 561.145 391.92C561.378 391.79 561.494 391.562 561.494 391.239V391.17C561.494 390.33 561.264 389.676 560.804 389.21C560.349 388.744 559.659 388.511 558.733 388.511C557.773 388.511 557.02 388.722 556.474 389.142C555.929 389.562 555.545 390.011 555.324 390.489L553.415 389.807C553.756 389.011 554.21 388.392 554.778 387.949C555.352 387.5 555.977 387.187 556.653 387.011C557.335 386.83 558.006 386.739 558.665 386.739C559.085 386.739 559.568 386.79 560.114 386.892C560.665 386.989 561.196 387.19 561.707 387.497C562.224 387.804 562.653 388.267 562.994 388.886C563.335 389.506 563.506 390.335 563.506 391.375V400H561.494V398.227H561.392C561.256 398.511 561.028 398.815 560.71 399.139C560.392 399.463 559.969 399.739 559.44 399.966C558.912 400.193 558.267 400.307 557.506 400.307ZM557.812 398.5C558.608 398.5 559.278 398.344 559.824 398.031C560.375 397.719 560.79 397.315 561.068 396.821C561.352 396.327 561.494 395.807 561.494 395.261V393.42C561.409 393.523 561.222 393.616 560.932 393.702C560.648 393.781 560.318 393.852 559.943 393.915C559.574 393.972 559.213 394.023 558.861 394.068C558.514 394.108 558.233 394.142 558.017 394.17C557.494 394.239 557.006 394.349 556.551 394.503C556.102 394.651 555.739 394.875 555.46 395.176C555.188 395.472 555.051 395.875 555.051 396.386C555.051 397.085 555.31 397.614 555.827 397.972C556.349 398.324 557.011 398.5 557.812 398.5ZM567.177 400V386.909H569.12V388.886H569.256C569.495 388.239 569.927 387.713 570.552 387.31C571.177 386.906 571.881 386.705 572.665 386.705C572.813 386.705 572.998 386.707 573.219 386.713C573.441 386.719 573.609 386.727 573.722 386.739V388.784C573.654 388.767 573.498 388.741 573.254 388.707C573.015 388.668 572.762 388.648 572.495 388.648C571.859 388.648 571.29 388.781 570.79 389.048C570.296 389.31 569.904 389.673 569.614 390.139C569.33 390.599 569.188 391.125 569.188 391.716V400H567.177ZM580.651 400.273C579.56 400.273 578.597 399.997 577.762 399.446C576.927 398.889 576.273 398.105 575.802 397.094C575.33 396.077 575.094 394.875 575.094 393.489C575.094 392.114 575.33 390.92 575.802 389.909C576.273 388.898 576.93 388.116 577.771 387.565C578.612 387.014 579.583 386.739 580.685 386.739C581.538 386.739 582.211 386.881 582.705 387.165C583.205 387.443 583.586 387.761 583.847 388.119C584.114 388.472 584.322 388.761 584.469 388.989H584.64V382.545H586.651V400H584.708V397.989H584.469C584.322 398.227 584.112 398.528 583.839 398.892C583.566 399.25 583.177 399.571 582.671 399.855C582.165 400.134 581.492 400.273 580.651 400.273ZM580.924 398.466C581.731 398.466 582.413 398.256 582.969 397.835C583.526 397.409 583.95 396.821 584.239 396.071C584.529 395.315 584.674 394.443 584.674 393.455C584.674 392.477 584.532 391.622 584.248 390.889C583.964 390.151 583.543 389.577 582.987 389.168C582.43 388.753 581.742 388.545 580.924 388.545C580.072 388.545 579.362 388.764 578.793 389.202C578.231 389.634 577.808 390.222 577.523 390.966C577.245 391.705 577.106 392.534 577.106 393.455C577.106 394.386 577.248 395.233 577.532 395.994C577.822 396.75 578.248 397.352 578.81 397.801C579.379 398.244 580.083 398.466 580.924 398.466Z" fill="black"/>
<path d="M776.83 130H774.614L781.023 112.545H783.205L789.614 130H787.398L782.182 115.307H782.045L776.83 130ZM777.648 123.182H786.58V125.057H777.648V123.182ZM797.003 130.273C795.912 130.273 794.949 129.997 794.114 129.446C793.278 128.889 792.625 128.105 792.153 127.094C791.682 126.077 791.446 124.875 791.446 123.489C791.446 122.114 791.682 120.92 792.153 119.909C792.625 118.898 793.281 118.116 794.122 117.565C794.963 117.014 795.935 116.739 797.037 116.739C797.889 116.739 798.563 116.881 799.057 117.165C799.557 117.443 799.938 117.761 800.199 118.119C800.466 118.472 800.673 118.761 800.821 118.989H800.991V112.545H803.003V130H801.06V127.989H800.821C800.673 128.227 800.463 128.528 800.19 128.892C799.918 129.25 799.528 129.571 799.023 129.855C798.517 130.134 797.844 130.273 797.003 130.273ZM797.276 128.466C798.082 128.466 798.764 128.256 799.321 127.835C799.878 127.409 800.301 126.821 800.591 126.071C800.881 125.315 801.026 124.443 801.026 123.455C801.026 122.477 800.884 121.622 800.599 120.889C800.315 120.151 799.895 119.577 799.338 119.168C798.781 118.753 798.094 118.545 797.276 118.545C796.423 118.545 795.713 118.764 795.145 119.202C794.582 119.634 794.159 120.222 793.875 120.966C793.597 121.705 793.457 122.534 793.457 123.455C793.457 124.386 793.599 125.233 793.884 125.994C794.173 126.75 794.599 127.352 795.162 127.801C795.73 128.244 796.435 128.466 797.276 128.466ZM811.909 130.273C810.818 130.273 809.855 129.997 809.02 129.446C808.185 128.889 807.531 128.105 807.06 127.094C806.588 126.077 806.352 124.875 806.352 123.489C806.352 122.114 806.588 120.92 807.06 119.909C807.531 118.898 808.188 118.116 809.028 117.565C809.869 117.014 810.841 116.739 811.943 116.739C812.795 116.739 813.469 116.881 813.963 117.165C814.463 117.443 814.844 117.761 815.105 118.119C815.372 118.472 815.58 118.761 815.727 118.989H815.898V112.545H817.909V130H815.966V127.989H815.727C815.58 128.227 815.369 128.528 815.097 128.892C814.824 129.25 814.435 129.571 813.929 129.855C813.423 130.134 812.75 130.273 811.909 130.273ZM812.182 128.466C812.989 128.466 813.67 128.256 814.227 127.835C814.784 127.409 815.207 126.821 815.497 126.071C815.787 125.315 815.932 124.443 815.932 123.455C815.932 122.477 815.79 121.622 815.506 120.889C815.222 120.151 814.801 119.577 814.244 119.168C813.688 118.753 813 118.545 812.182 118.545C811.33 118.545 810.619 118.764 810.051 119.202C809.489 119.634 809.065 120.222 808.781 120.966C808.503 121.705 808.364 122.534 808.364 123.455C808.364 124.386 808.506 125.233 808.79 125.994C809.08 126.75 809.506 127.352 810.068 127.801C810.636 128.244 811.341 128.466 812.182 128.466ZM821.872 130V116.909H823.815V118.886H823.952C824.19 118.239 824.622 117.713 825.247 117.31C825.872 116.906 826.577 116.705 827.361 116.705C827.509 116.705 827.693 116.707 827.915 116.713C828.136 116.719 828.304 116.727 828.418 116.739V118.784C828.349 118.767 828.193 118.741 827.949 118.707C827.71 118.668 827.457 118.648 827.19 118.648C826.554 118.648 825.986 118.781 825.486 119.048C824.991 119.31 824.599 119.673 824.31 120.139C824.026 120.599 823.884 121.125 823.884 121.716V130H821.872ZM835.892 130.273C834.631 130.273 833.543 129.994 832.628 129.438C831.719 128.875 831.017 128.091 830.523 127.085C830.034 126.074 829.79 124.898 829.79 123.557C829.79 122.216 830.034 121.034 830.523 120.011C831.017 118.983 831.705 118.182 832.585 117.608C833.472 117.028 834.506 116.739 835.688 116.739C836.369 116.739 837.043 116.852 837.707 117.08C838.372 117.307 838.977 117.676 839.523 118.188C840.068 118.693 840.503 119.364 840.827 120.199C841.151 121.034 841.312 122.062 841.312 123.284V124.136H831.222V122.398H839.267C839.267 121.659 839.119 121 838.824 120.42C838.534 119.841 838.119 119.384 837.58 119.048C837.045 118.713 836.415 118.545 835.688 118.545C834.886 118.545 834.193 118.744 833.608 119.142C833.028 119.534 832.582 120.045 832.27 120.676C831.957 121.307 831.801 121.983 831.801 122.705V123.864C831.801 124.852 831.972 125.69 832.312 126.378C832.659 127.06 833.139 127.58 833.753 127.938C834.366 128.29 835.08 128.466 835.892 128.466C836.42 128.466 836.898 128.392 837.324 128.244C837.756 128.091 838.128 127.864 838.44 127.562C838.753 127.256 838.994 126.875 839.165 126.42L841.108 126.966C840.903 127.625 840.56 128.205 840.077 128.705C839.594 129.199 838.997 129.585 838.287 129.864C837.577 130.136 836.778 130.273 835.892 130.273ZM853.645 119.841L851.838 120.352C851.724 120.051 851.557 119.759 851.335 119.474C851.119 119.185 850.824 118.946 850.449 118.759C850.074 118.571 849.594 118.477 849.009 118.477C848.207 118.477 847.54 118.662 847.006 119.031C846.477 119.395 846.213 119.858 846.213 120.42C846.213 120.92 846.395 121.315 846.759 121.605C847.122 121.895 847.69 122.136 848.463 122.33L850.406 122.807C851.577 123.091 852.449 123.526 853.023 124.111C853.597 124.69 853.884 125.437 853.884 126.352C853.884 127.102 853.668 127.773 853.236 128.364C852.81 128.955 852.213 129.42 851.446 129.761C850.679 130.102 849.787 130.273 848.77 130.273C847.435 130.273 846.33 129.983 845.455 129.403C844.58 128.824 844.026 127.977 843.793 126.864L845.702 126.386C845.884 127.091 846.227 127.619 846.733 127.972C847.244 128.324 847.912 128.5 848.736 128.5C849.673 128.5 850.418 128.301 850.969 127.903C851.526 127.5 851.804 127.017 851.804 126.455C851.804 126 851.645 125.619 851.327 125.312C851.009 125 850.52 124.767 849.861 124.614L847.679 124.102C846.48 123.818 845.599 123.378 845.037 122.781C844.48 122.179 844.202 121.426 844.202 120.523C844.202 119.784 844.409 119.131 844.824 118.562C845.244 117.994 845.815 117.548 846.537 117.224C847.264 116.901 848.088 116.739 849.009 116.739C850.304 116.739 851.321 117.023 852.06 117.591C852.804 118.159 853.332 118.909 853.645 119.841ZM866.184 119.841L864.377 120.352C864.263 120.051 864.096 119.759 863.874 119.474C863.658 119.185 863.363 118.946 862.988 118.759C862.613 118.571 862.133 118.477 861.548 118.477C860.746 118.477 860.079 118.662 859.545 119.031C859.016 119.395 858.752 119.858 858.752 120.42C858.752 120.92 858.934 121.315 859.298 121.605C859.661 121.895 860.229 122.136 861.002 122.33L862.945 122.807C864.116 123.091 864.988 123.526 865.562 124.111C866.136 124.69 866.423 125.437 866.423 126.352C866.423 127.102 866.207 127.773 865.775 128.364C865.349 128.955 864.752 129.42 863.985 129.761C863.218 130.102 862.326 130.273 861.309 130.273C859.974 130.273 858.869 129.983 857.994 129.403C857.119 128.824 856.565 127.977 856.332 126.864L858.241 126.386C858.423 127.091 858.766 127.619 859.272 127.972C859.783 128.324 860.451 128.5 861.275 128.5C862.212 128.5 862.957 128.301 863.508 127.903C864.065 127.5 864.343 127.017 864.343 126.455C864.343 126 864.184 125.619 863.866 125.312C863.548 125 863.059 124.767 862.4 124.614L860.218 124.102C859.019 123.818 858.138 123.378 857.576 122.781C857.019 122.179 856.741 121.426 856.741 120.523C856.741 119.784 856.948 119.131 857.363 118.562C857.783 117.994 858.354 117.548 859.076 117.224C859.803 116.901 860.627 116.739 861.548 116.739C862.843 116.739 863.86 117.023 864.599 117.591C865.343 118.159 865.871 118.909 866.184 119.841Z" fill="black"/>
<path d="M781.5 400H776.114V382.545H781.739C783.432 382.545 784.881 382.895 786.085 383.594C787.29 384.287 788.213 385.284 788.855 386.585C789.497 387.881 789.818 389.432 789.818 391.239C789.818 393.057 789.494 394.622 788.847 395.935C788.199 397.241 787.256 398.247 786.017 398.952C784.778 399.651 783.273 400 781.5 400ZM778.227 398.125H781.364C782.807 398.125 784.003 397.847 784.952 397.29C785.901 396.733 786.608 395.94 787.074 394.912C787.54 393.884 787.773 392.659 787.773 391.239C787.773 389.83 787.543 388.616 787.082 387.599C786.622 386.577 785.935 385.793 785.02 385.247C784.105 384.696 782.966 384.42 781.602 384.42H778.227V398.125ZM796.943 400.307C796.114 400.307 795.361 400.151 794.685 399.838C794.009 399.52 793.472 399.062 793.074 398.466C792.676 397.864 792.477 397.136 792.477 396.284C792.477 395.534 792.625 394.926 792.92 394.46C793.216 393.989 793.611 393.619 794.105 393.352C794.599 393.085 795.145 392.886 795.741 392.756C796.344 392.619 796.949 392.511 797.557 392.432C798.352 392.33 798.997 392.253 799.491 392.202C799.991 392.145 800.355 392.051 800.582 391.92C800.815 391.79 800.932 391.562 800.932 391.239V391.17C800.932 390.33 800.702 389.676 800.241 389.21C799.787 388.744 799.097 388.511 798.17 388.511C797.21 388.511 796.457 388.722 795.912 389.142C795.366 389.562 794.983 390.011 794.761 390.489L792.852 389.807C793.193 389.011 793.648 388.392 794.216 387.949C794.79 387.5 795.415 387.187 796.091 387.011C796.773 386.83 797.443 386.739 798.102 386.739C798.523 386.739 799.006 386.79 799.551 386.892C800.102 386.989 800.634 387.19 801.145 387.497C801.662 387.804 802.091 388.267 802.432 388.886C802.773 389.506 802.943 390.335 802.943 391.375V400H800.932V398.227H800.83C800.693 398.511 800.466 398.815 800.148 399.139C799.83 399.463 799.406 399.739 798.878 399.966C798.349 400.193 797.705 400.307 796.943 400.307ZM797.25 398.5C798.045 398.5 798.716 398.344 799.261 398.031C799.813 397.719 800.227 397.315 800.506 396.821C800.79 396.327 800.932 395.807 800.932 395.261V393.42C800.847 393.523 800.659 393.616 800.369 393.702C800.085 393.781 799.756 393.852 799.381 393.915C799.011 393.972 798.651 394.023 798.298 394.068C797.952 394.108 797.67 394.142 797.455 394.17C796.932 394.239 796.443 394.349 795.989 394.503C795.54 394.651 795.176 394.875 794.898 395.176C794.625 395.472 794.489 395.875 794.489 396.386C794.489 397.085 794.747 397.614 795.264 397.972C795.787 398.324 796.449 398.5 797.25 398.5ZM812.308 386.909V388.614H805.523V386.909H812.308ZM807.501 383.773H809.512V396.25C809.512 396.818 809.594 397.244 809.759 397.528C809.93 397.807 810.146 397.994 810.407 398.091C810.674 398.182 810.955 398.227 811.251 398.227C811.472 398.227 811.654 398.216 811.796 398.193C811.938 398.165 812.052 398.142 812.137 398.125L812.546 399.932C812.41 399.983 812.219 400.034 811.975 400.085C811.731 400.142 811.421 400.17 811.046 400.17C810.478 400.17 809.921 400.048 809.376 399.804C808.836 399.56 808.387 399.188 808.029 398.688C807.677 398.188 807.501 397.557 807.501 396.795V383.773ZM820.681 400.273C819.42 400.273 818.332 399.994 817.417 399.438C816.508 398.875 815.806 398.091 815.312 397.085C814.823 396.074 814.579 394.898 814.579 393.557C814.579 392.216 814.823 391.034 815.312 390.011C815.806 388.983 816.494 388.182 817.374 387.608C818.261 387.028 819.295 386.739 820.477 386.739C821.158 386.739 821.832 386.852 822.496 387.08C823.161 387.307 823.766 387.676 824.312 388.188C824.857 388.693 825.292 389.364 825.616 390.199C825.94 391.034 826.102 392.062 826.102 393.284V394.136H816.011V392.398H824.056C824.056 391.659 823.908 391 823.613 390.42C823.323 389.841 822.908 389.384 822.369 389.048C821.835 388.713 821.204 388.545 820.477 388.545C819.675 388.545 818.982 388.744 818.397 389.142C817.817 389.534 817.371 390.045 817.059 390.676C816.746 391.307 816.59 391.983 816.59 392.705V393.864C816.59 394.852 816.761 395.69 817.102 396.378C817.448 397.06 817.928 397.58 818.542 397.938C819.156 398.29 819.869 398.466 820.681 398.466C821.21 398.466 821.687 398.392 822.113 398.244C822.545 398.091 822.917 397.864 823.229 397.562C823.542 397.256 823.783 396.875 823.954 396.42L825.897 396.966C825.692 397.625 825.349 398.205 824.866 398.705C824.383 399.199 823.786 399.585 823.076 399.864C822.366 400.136 821.567 400.273 820.681 400.273Z" fill="black"/>
<rect x="503" y="72" width="368" height="5" fill="#9F9D9D"/>
<rect x="503" y="342" width="368" height="5" fill="#9F9D9D"/>
</g>
<defs>
<clipPath id="clip0_2_7">
<rect width="894" height="604" rx="10" fill="white"/>
</clipPath>
</defs>
</svg>
